<svg width="20" height="20" viewBox="0 0 20 20" fill="none" xmlns="http://www.w3.org/2000/svg">
  <rect x="1" y="1" width="18" height="18" rx="4" fill="#232F3E"/>
  <path d="M5 12.4C7.8 14.2 12.2 14.4 15.3 12.4" stroke="#FF9900" stroke-width="1.6" stroke-linecap="round"/>
  <path d="M13.7 11.9L15.7 12.1L15.1 14" stroke="#FF9900" stroke-width="1.3" stroke-linecap="round" stroke-linejoin="round"/>
  <path d="M5.2 9.9L7.1 5.3H8.7L10.6 9.9H9L8.7 8.9H7L6.7 9.9H5.2ZM7.4 7.7H8.3L7.9 6.2L7.4 7.7Z" fill="white"/>
  <path d="M10.8 5.3H12.2L12.8 8L13.6 5.3H14.8L15.5 8L16.1 5.3H17.5L16.2 9.9H14.9L14.2 7.3L13.5 9.9H12.2L10.8 5.3Z" fill="white"/>
</svg>
